<svg id="visual" viewBox="0 0 1980 1080" width="1980" height="1080" xmlns="http://www.w3.org/2000/svg" xmlns:xlink="http://www.w3.org/1999/xlink" version="1.1"><path d="M0 772L47.2 766.3C94.3 760.7 188.7 749.3 283 764.7C377.3 780 471.7 822 566 851.2C660.3 880.3 754.7 896.7 848.8 885.7C943 874.7 1037 836.3 1131.2 798C1225.3 759.7 1319.7 721.3 1414 741.5C1508.3 761.7 1602.7 840.3 1697 876C1791.3 911.7 1885.7 904.3 1932.8 900.7L1980 897L1980 1081L1932.8 1081C1885.7 1081 1791.3 1081 1697 1081C1602.7 1081 1508.3 1081 1414 1081C1319.7 1081 1225.3 1081 1131.2 1081C1037 1081 943 1081 848.8 1081C754.7 1081 660.3 1081 566 1081C471.7 1081 377.3 1081 283 1081C188.7 1081 94.3 1081 47.2 1081L0 1081Z" fill="#72c9c9" stroke-linecap="round" stroke-linejoin="miter"></path></svg>