<svg id="visual" viewBox="0 0 1980 1080" width="1980" height="1080" xmlns="http://www.w3.org/2000/svg" xmlns:xlink="http://www.w3.org/1999/xlink" version="1.1"><rect x="0" y="0" width="1980" height="1080" fill="#002233"></rect><path d="M0 894L55 902C110 910 220 926 330 939.8C440 953.7 550 965.3 660 941.7C770 918 880 859 990 846.5C1100 834 1210 868 1320 898.2C1430 928.3 1540 954.7 1650 943.3C1760 932 1870 883 1925 858.5L1980 834L1980 1081L1925 1081C1870 1081 1760 1081 1650 1081C1540 1081 1430 1081 1320 1081C1210 1081 1100 1081 990 1081C880 1081 770 1081 660 1081C550 1081 440 1081 330 1081C220 1081 110 1081 55 1081L0 1081Z" fill="#72c9c9" stroke-linecap="round" stroke-linejoin="miter"></path></svg>